<?xml version="1.0" encoding="UTF-8"?>
<svg id="Layer_1" xmlns="http://www.w3.org/2000/svg" xmlns:xlink="http://www.w3.org/1999/xlink" version="1.1" viewBox="0 0 150 150">
  <!-- Generator: Adobe Illustrator 30.3.0, SVG Export Plug-In . SVG Version: 2.1.3 Build 182)  -->
  <defs>
    <style>
      .st0 {
        fill: url(#linear-gradient1);
      }

      .st1 {
        fill: url(#linear-gradient);
      }
    </style>
    <linearGradient id="linear-gradient" x1="-86.1" y1="77.6" x2="898.2" y2="74.2" gradientTransform="translate(0 152) scale(1 -1)" gradientUnits="userSpaceOnUse">
      <stop offset="0" stop-color="#d4139f"/>
      <stop offset=".2" stop-color="#ff9c53"/>
      <stop offset=".3" stop-color="#7a56bc"/>
      <stop offset=".4" stop-color="#4585d5"/>
      <stop offset=".5" stop-color="#00c3f8"/>
      <stop offset=".7" stop-color="#00d1c6"/>
      <stop offset=".8" stop-color="#006fba"/>
      <stop offset="1" stop-color="#d168cb"/>
    </linearGradient>
    <linearGradient id="linear-gradient1" x1="-85.9" y1="140.6" x2="898.4" y2="137.2" gradientTransform="translate(0 152) scale(1 -1)" gradientUnits="userSpaceOnUse">
      <stop offset="0" stop-color="#d4139f"/>
      <stop offset=".2" stop-color="#ff9c53"/>
      <stop offset=".3" stop-color="#7a56bc"/>
      <stop offset=".4" stop-color="#4585d5"/>
      <stop offset=".5" stop-color="#00c3f8"/>
      <stop offset=".7" stop-color="#00d1c6"/>
      <stop offset=".8" stop-color="#006fba"/>
      <stop offset="1" stop-color="#d168cb"/>
    </linearGradient>
  </defs>
  <g id="Layer_11" data-name="Layer_1">
    <path class="st1" d="M75,150c-10.1,0-20-2-29.2-5.9-8.9-3.8-17-9.2-23.8-16.1-6.9-6.9-12.3-14.9-16.1-23.8-3.9-9.2-5.9-19.1-5.9-29.2s2-20,5.9-29.2c3.8-8.9,9.2-17,16.1-23.8,2.5-2.5,6.5-2.5,8.9,0,2.5,2.5,2.5,6.5,0,9-5.7,5.7-10.2,12.4-13.4,19.8-3.2,7.7-4.9,15.9-4.9,24.3s1.6,16.6,4.9,24.3c3.1,7.4,7.6,14.1,13.4,19.8,5.7,5.7,12.4,10.2,19.8,13.4,7.7,3.2,15.8,4.9,24.3,4.9s16.6-1.6,24.3-4.9c7.4-3.1,14.1-7.6,19.8-13.4s10.2-12.4,13.4-19.8c3.2-7.7,4.9-15.8,4.9-24.3s-1.6-16.6-4.9-24.3c-3.1-7.4-7.6-14.1-13.4-19.8-5.7-5.7-12.4-10.2-19.8-13.4-7.7-3.2-15.8-4.9-24.3-4.9s-6.3-2.8-6.3-6.3S71.5,0,75,0c10.1,0,19.9,2,29.2,5.9,8.9,3.8,16.9,9.2,23.8,16.1s12.3,14.9,16.1,23.8c3.9,9.2,5.9,19.1,5.9,29.2s-2,19.9-5.9,29.2c-3.8,8.9-9.2,16.9-16.1,23.8-6.9,6.9-14.9,12.3-23.8,16.1-9.2,3.9-19.1,5.9-29.2,5.9h0Z"/>
    <path class="st0" d="M35.1,18.7c-1.8-3-.7-6.9,2.3-8.6h0c3-1.8,6.9-.7,8.6,2.3h0c1.8,3,.7,6.9-2.3,8.6h0c-.8.5-1.7.7-2.6.8h0c-2.4.2-4.8-.9-6.1-3.1h0ZM52.6,9.8c-.8-3.4,1.3-6.8,4.7-7.6h0c3.4-.8,6.8,1.3,7.6,4.7h0c.8,3.4-1.3,6.8-4.7,7.6h0c-.3,0-.6.1-.9.2h0c-3.1.3-6-1.7-6.7-4.8Z"/>
  </g>
</svg>